<svg xmlns="http://www.w3.org/2000/svg" viewBox="0 0 320 80" width="320" height="80">

  <!-- ── ICÔNE ── -->
  <g transform="translate(0, 0) scale(0.8)">
    <circle cx="50" cy="50" r="48" fill="#1E6B5E"/>
    <circle cx="50" cy="50" r="48" fill="none" stroke="#2D8C7A" stroke-width="1.5" opacity="0.5"/>
    <path d="M 22 68 C 22 44, 42 44, 50 50 C 58 56, 78 56, 78 32"
          stroke="white" stroke-width="3.2" fill="none"
          stroke-linecap="round" stroke-linejoin="round"/>
    <circle cx="34" cy="48" r="2.2" fill="white" opacity="0.35"/>
    <circle cx="66" cy="52" r="2.2" fill="white" opacity="0.35"/>
    <circle cx="22" cy="68" r="5.5" fill="white" opacity="0.9"/>
    <circle cx="22" cy="68" r="3"   fill="#1E6B5E"/>
    <circle cx="50" cy="50" r="4.5" fill="white" opacity="0.6"/>
    <circle cx="50" cy="50" r="2"   fill="#1E6B5E"/>
    <circle cx="78" cy="32" r="7"   fill="#F0A500"/>
    <circle cx="78" cy="32" r="3.5" fill="#fff" opacity="0.4"/>
    <path d="M78 28.5 L79 31 L81.5 31 L79.5 32.8 L80.3 35.5 L78 33.8 L75.7 35.5 L76.5 32.8 L74.5 31 L77 31 Z"
          fill="white" opacity="0.85"/>
  </g>

  <!-- ── TEXTE ── -->
  <g transform="translate(88, 0)">
    <!-- "La" petit -->
    <text x="0" y="30"
          font-family="Georgia, 'Times New Roman', serif"
          font-size="15"
          font-style="italic"
          font-weight="400"
          fill="#2D8C7A"
          letter-spacing="1">La</text>

    <!-- "NEURO" -->
    <text x="0" y="52"
          font-family="Georgia, 'Times New Roman', serif"
          font-size="28"
          font-weight="700"
          fill="#1E6B5E"
          letter-spacing="2">NEURO</text>

    <!-- Tiret décoratif -->
    <line x1="0" y1="57" x2="148" y2="57" stroke="#F0A500" stroke-width="1.5" opacity="0.7"/>

    <!-- "ODYSSÉE" -->
    <text x="0" y="74"
          font-family="Georgia, 'Times New Roman', serif"
          font-size="20"
          font-weight="400"
          fill="#1a2332"
          letter-spacing="5">ODYSSÉE</text>
  </g>

</svg>
